<?xml version="1.0" encoding="UTF-8"?>
<svg width="216px" height="64px" viewBox="0 0 216 64" version="1.1" xmlns="http://www.w3.org/2000/svg" xmlns:xlink="http://www.w3.org/1999/xlink">
    <title>logo</title>
    <defs>
        <rect id="path-1" x="0" y="0" width="44" height="44" rx="22"></rect>
        <filter id="filter-3">
            <feColorMatrix in="SourceGraphic" type="matrix" values="0 0 0 0 0.000000 0 0 0 0 0.372549 0 0 0 0 0.964706 0 0 0 1.000000 0"></feColorMatrix>
        </filter>
    </defs>
    <g id="页面-2" stroke="none" stroke-width="1" fill="none" fill-rule="evenodd">
        <g id="logo">
            <rect id="矩形" x="0" y="0" width="216" height="64"></rect>
            <g transform="translate(24.000000, 10.000000)">
                <mask id="mask-2" fill="white">
                    <use xlink:href="#path-1"></use>
                </mask>
                <use id="蒙版" fill="#FFFFFF" xlink:href="#path-1"></use>
                <g filter="url(#filter-3)" id="编组">
                    <g mask="url(#mask-2)">
                        <g transform="translate(2.666667, 1.000000)">
                            <path d="M2.44120247,20.3924324 C2.00743027,20.7116886 1.60761843,20.9861605 1.23379533,21.2930004 C1.12063736,21.3858779 1.06191966,21.5620995 1.0101366,21.7114243 C0.96094594,21.8532796 0.953460404,22.0099101 0.922124851,22.1921924 C0.77166883,22.2205635 0.617291814,22.2496553 0.417223867,22.2874288 C0.276230081,21.7832037 0.123311286,21.2981111 0.0124540715,20.8033212 C-0.0221867829,20.6488202 0.0192266988,20.4498297 0.0899018189,20.3026999 C0.561166501,19.3220639 1.48243824,18.8429666 2.54859236,19.0349134 C2.96036161,19.1090517 3.36140484,19.2446168 3.76630426,19.3562337 C3.86922227,19.3846047 3.96799245,19.4285373 4.12479984,19.4858035 C4.04002858,19.0920487 3.96394184,18.7385244 3.8793326,18.3454903 C4.601865,18.2610323 5.30284812,18.179097 6.01941801,18.0953598 C5.96611193,17.8926018 5.91358356,17.7278465 5.88017409,17.5591927 C5.76458576,16.975686 5.97913871,16.6091555 6.54091032,16.4313287 C7.06732816,16.2647061 7.60680519,16.2796451 8.14498602,16.3437912 C8.60536265,16.3986987 9.06146184,16.4956058 9.52268099,16.5353449 C9.8635807,16.5646988 10.21229,16.5573276 10.5529629,16.5217491 C11.2551126,16.4483972 11.8110513,16.0935297 12.2440458,15.5374766 C12.7052001,14.9452227 12.9723138,14.2596981 13.1999584,13.5093722 C13.0995355,13.5275545 13.0312584,13.5359086 12.9649903,13.552584 C12.4525066,13.6814659 11.9405737,13.812379 11.4282196,13.9418178 C10.9365398,14.0660476 10.5145954,14.291247 10.1602801,14.6783186 C9.48340624,15.4178334 8.59395612,15.6643929 7.42511083,15.1259653 C7.31486931,14.0414441 7.62919699,13.1048717 8.45555473,12.3812788 C8.7533235,12.1205337 9.10138469,11.9044419 9.4547927,11.724846 C11.8930357,10.4856271 14.449103,9.56736816 17.0989826,8.91594778 C19.3508649,8.36238462 21.6063443,7.82376048 23.8590367,7.27370274 C25.3894885,6.89999764 26.9138805,6.50503063 28.3773189,5.90412777 C29.7775353,5.32920441 31.0773288,4.58952582 32.2020386,3.55568591 C33.1882498,2.64912262 33.9654169,1.58488047 34.5651995,0.384680045 C34.6311111,0.252718606 34.7002632,0.122395218 34.8117685,0 C34.8183143,0.124622968 34.8283598,0.249213175 34.8307578,0.373934426 C34.8489045,1.31627277 34.7742436,2.24668609 34.5081992,3.15659101 C34.0462024,4.7367539 33.0856559,5.89194067 31.5945437,6.54958564 C29.944453,7.27737198 28.2797153,7.97295422 26.607006,8.64612792 C24.5535065,9.47255773 22.4814066,10.2516806 20.4259952,11.0733601 C19.93788,11.2684848 19.4636989,11.5187135 19.0195895,11.802031 C18.3738892,12.2139354 17.9466303,12.8104483 17.8112426,13.5856398 C17.654014,14.4858475 17.8569011,15.1174147 18.6438221,15.6484055 C18.9118107,15.8292792 19.203617,15.9758193 19.4912754,16.1247837 C20.0771887,16.4282819 20.6695506,16.7200189 21.1884181,17.13746 C21.7018739,17.5504783 22.100098,18.0459562 22.1853553,18.7262062 C22.3330569,19.9049154 21.927801,20.8718245 21.020431,21.6143533 C20.3774203,22.1405611 19.6184647,22.3787665 18.7993009,22.3984887 C17.9561898,22.4188333 17.1178746,22.4623072 16.2941741,22.662215 C15.5300986,22.8476752 14.8273656,23.1655227 14.1869473,23.6291569 C12.9396497,24.5320837 12.3464129,25.7602948 12.3860765,27.3040602 C12.3936269,27.5977301 12.4303092,27.8905482 12.4515993,28.1839232 C12.4561683,28.2469554 12.4522798,28.3105774 12.4522798,28.3904815 C11.9205151,28.4531206 11.4068972,28.3910712 10.8941542,28.3329532 C10.7234775,28.3135914 10.5541619,28.2728367 10.3873089,28.2296576 C9.62242332,28.0317482 9.01735875,27.604872 8.5898731,26.9296016 C8.30957059,26.4867707 8.10350773,26.0108839 7.94653832,25.4593192 C8.20043083,25.4981082 8.42363589,25.517339 8.63977667,25.5677582 C9.70586598,25.8163817 10.5425933,25.4299325 11.2300636,24.6249284 C11.9421292,23.7911274 12.150752,22.8109828 11.9884358,21.749034 C11.8433914,20.7999796 11.2437384,20.2258753 10.3077873,20.0436584 C9.65226825,19.9160869 9.01457192,20.0043124 8.39213831,20.2007148 C6.91204381,20.6677888 5.67194011,21.508699 4.68326615,22.7176794 C4.28779656,23.201265 3.98182935,23.7380218 3.83882646,24.3577295 C3.83215105,24.386723 3.81011571,24.41208 3.7757989,24.4745225 C3.21982777,24.2184951 2.68553553,23.9489373 2.36978203,23.3852837 C2.16673284,23.0229139 2.18355099,22.6312558 2.25804989,22.2382217 C2.27421994,22.152912 2.30221779,22.0696007 2.3286926,21.9866497 C2.51540972,21.4022912 2.53757468,21.1383028 2.44120247,20.3924324" id="Fill-1" fill="#1A5D9B"></path>
                            <path d="M22,17.0628333 C22.4582071,17.0088515 22.9172869,16.954969 23.3762996,16.9006234 C24.9508053,16.7141349 26.5253782,16.5374041 28.0484947,16.0619544 C29.657741,15.5596461 31.1664242,14.8596363 32.5652129,13.9290131 C32.6573846,13.8676551 32.7512682,13.8088772 32.842668,13.75 C36.6746433,17.6792575 38.8037908,24.3472627 36.8390487,31.127333 C35.8512065,34.5362552 34.0382491,37.451833 31.3017616,39.775199 C28.8105732,41.8903449 25.9721462,43.3366064 22.7172346,44 C22.7109578,43.9010334 22.6965916,43.8251216 22.7028348,43.7509628 C22.7902402,42.7202815 22.8508265,41.6859286 23.1013619,40.6759205 C23.5711492,38.7820271 24.4799439,37.1245354 25.8807801,35.7434026 C26.6708525,34.9645039 27.4984515,34.2226185 28.2911756,33.4462998 C29.286268,32.4717503 30.1618326,31.402898 30.8444608,30.1878452 C31.6406758,28.7705592 32.0660219,27.2597312 32.0150354,25.6346882 C31.9715677,24.2502807 31.6244635,22.9361621 30.9861422,21.7019576 C30.6380645,21.0289055 30.0912101,20.5240172 29.4835008,20.0816115 C28.4497741,19.3290752 27.2933643,18.8073838 26.0997635,18.358925 C24.8771954,17.8996169 23.6212629,17.5470154 22.3544887,17.2295417 C22.2368069,17.200037 22.122381,17.1579299 22.0069146,17.1201889 C22.0029202,17.1188989 22.00433,17.1015004 22,17.0628333" id="Fill-3" fill="#1A5D9B"></path>
                            <path d="M20.6399856,43.9180467 C18.3816558,44.2188337 14.5816733,43.6820958 11.9217156,42.4652314 C11.8966367,42.0724685 11.9692457,41.6794776 12.0454469,41.2883438 C12.5166571,38.8701235 13.7195453,36.8312753 15.4270378,35.0567234 C16.6861373,33.7482741 18.1621989,32.7210957 19.7774584,31.8828867 C20.7258991,31.3907195 21.692334,30.9319151 22.6472605,30.4516073 C23.407277,30.0692703 24.1413165,29.6455882 24.7844866,29.0869559 C25.8252601,28.1830637 26.4054005,27.0434161 26.5764624,25.6994535 C26.8204992,23.782067 26.1618626,22.1370894 24.9707156,20.6578835 C24.3992564,19.9482387 23.7369611,19.3242817 23.0430013,18.7314721 C22.9119857,18.6195566 22.7816022,18.5068593 22.6687472,18.3333333 C22.7918799,18.342847 22.918006,18.3387092 23.037746,18.3638942 C25.0246319,18.781386 26.8588492,19.5341679 28.4561144,20.7836458 C29.6075144,21.6843451 30.4906967,22.7890334 30.8848077,24.1985487 C31.5418477,26.5486749 31.048918,28.6589405 29.4191567,30.5105788 C28.5532701,31.4943593 27.5374092,32.3159196 26.5067138,33.1216129 C25.8230316,33.6559724 25.0986046,34.1440018 24.4448907,34.7107793 C22.39574,36.4874164 21.1377714,38.7061763 20.7462216,41.3659189 C20.6457065,42.0489777 20.6707854,42.7498908 20.6409169,43.4426913 C20.634431,43.5932151 20.6399856,43.7442602 20.6399856,43.9180467" id="Fill-5" fill="#1A5D9B"></path>
                            <path d="M33,9.16666667 C32.8768438,9.30510418 32.8062996,9.38715552 32.7330902,9.46636298 C30.6068931,11.7662584 28.0448619,13.2376353 25.120436,14.0151043 C23.7134016,14.3891278 22.2837957,14.5975389 20.834744,14.6649495 C20.5241718,14.6793796 20.250122,14.6030511 19.9939058,14.4288017 C19.7447965,14.2593975 19.4974641,14.0869738 19.25,13.9163056 C19.3957606,13.6036187 19.9978212,12.8490061 20.2528201,12.6922062 C20.392724,12.6062226 20.5509878,12.544886 20.7080342,12.50135 C23.1125584,11.8350383 25.5171814,11.1689723 27.9240417,10.5124211 C29.535865,10.0727424 31.1512417,9.64802052 32.765072,9.21708418 C32.8164337,9.20332118 32.8690128,9.19457887 33,9.16666667" id="Fill-7" fill="#1C5E9B"></path>
                            <path d="M8.25,10.0833333 C9.48868186,4.309452 14.3952284,0.666110692 19.25,0 C19.0989168,0.0841652543 19.0080272,0.136192289 18.9159396,0.185914329 C15.8897739,1.81972787 13.7309608,4.24566949 12.4867744,7.49637133 C12.3153891,7.94413312 12.0447604,8.27572315 11.6329242,8.47859566 C10.5376192,9.01812918 9.43496409,9.5420546 8.33480219,10.0713144 C8.31686389,10.0799088 8.29387437,10.077505 8.25,10.0833333" id="Fill-9" fill="#1C5E9B"></path>
                            <path d="M26.5833333,1.83333333 C26.3935356,2.01188419 26.2034165,2.18998473 26.0140045,2.36913601 C24.8012598,3.5163947 23.5882581,4.66331565 22.3760919,5.81139993 C21.5326252,6.61033809 20.5643837,7.06947423 19.4960524,7.25605575 C18.8782536,7.36390677 18.2602299,7.35553837 17.642624,7.25170268 C17.5900399,7.24284644 17.5374558,7.23151345 17.4863502,7.21522697 C17.4679329,7.20937284 17.4537905,7.18550602 17.4166667,7.14936804 C20.0394106,4.3716976 23.1132656,2.66409393 26.5833333,1.83333333" id="Fill-11" fill="#1D5E9B"></path>
                            <path d="M4.58333333,24.4537311 C4.99843287,24.5073423 5.38828726,24.5636794 5.7792658,24.6069682 C6.64004168,24.7022688 7.33630659,24.3724603 7.82254861,23.5489202 C8.0358797,23.1875265 8.21940483,22.8037433 8.42043454,22.4328268 C8.54868373,22.1962108 8.66768278,21.9497085 8.81966754,21.7336647 C9.20904015,21.1802158 9.72383552,20.9835083 10.3332199,21.130203 C10.5588524,21.1845047 10.7779327,21.2739172 11,21.3473009 L10.9946362,21.4234469 C10.7716696,21.4542688 10.548446,21.4827281 10.3258005,21.5166031 C10.156536,21.5423728 9.9867897,21.5681425 9.81942018,21.6059793 C9.47777566,21.6832157 9.23283996,21.9033303 9.12861542,22.2828973 C9.01780658,22.6861986 8.89604534,23.0912809 8.83707576,23.5061403 C8.66299348,24.7306918 7.9905605,25.3525449 6.96337865,25.570079 C6.50931937,25.6661792 6.05326875,25.7185909 5.59529101,25.5913053 C5.07111704,25.4456647 4.7514737,25.0974285 4.58333333,24.4537311" id="Fill-13" fill="#215F9C"></path>
                        </g>
                    </g>
                </g>
            </g>
            <path d="M98.256,44.144 L99.192,38.168 L95.976,37.664 L95.592,40.184 L93.864,40.184 L97.56,32.48 L97.584,32.48 L97.584,28.856 L91.68,28.856 L92.496,26.72 L98.688,26.72 L98.688,22.808 L93.984,22.808 L94.488,21.416 L91.32,20.192 L88.44,27.776 L91.296,28.856 L89.832,28.856 L89.832,32.48 L93.552,32.48 L89.136,41.648 L89.136,44.144 L98.256,44.144 Z M85.656,44.528 L85.656,41.552 L88.752,41.552 L88.752,37.952 L85.656,37.952 L85.656,36.824 L88.392,36.824 L88.392,26.648 L85.776,26.648 L85.776,25.904 L88.752,25.904 L88.752,22.016 L85.776,22.016 L85.776,20.6 L82.488,20.6 L82.488,22.016 L79.392,22.016 L79.392,25.904 L82.488,25.904 L82.488,26.648 L79.776,26.648 L79.776,36.824 L82.488,36.824 L82.488,37.928 L79.008,37.928 L79.008,41.552 L82.488,41.552 L82.488,44.528 L85.656,44.528 Z M85.632,30.2 L82.632,30.2 L82.632,29.48 L85.632,29.48 L85.632,30.2 Z M85.632,33.704 L82.632,33.704 L82.632,33.008 L85.632,33.008 L85.632,33.704 Z M115.632,44.624 L116.784,40.928 L118.608,44.456 L122.256,42.584 L118.512,35.36 L120.84,27.848 L120.84,23.552 L116.808,23.552 L117.576,21.056 L114.216,20.024 L111.912,27.488 L111.912,25.064 L110.88,25.064 L112.584,22.136 L110.064,20.696 L108.336,23.672 L108.336,20.576 L105.408,20.576 L105.408,24.344 L104.088,20.864 L101.304,21.92 L102.504,25.064 L101.424,25.064 L101.424,28.256 L103.92,28.256 L100.368,31.136 L102.456,33.704 L105.408,31.304 L105.408,32.432 L108.336,32.432 L108.336,31.376 L110.664,33.224 L111.288,32.456 L112.584,32.864 L114.432,36.416 L112.224,43.568 L115.632,44.624 Z M109.224,25.064 L108.336,25.064 L108.336,24.56 L109.224,25.064 Z M105.408,25.064 L104.712,25.064 L105.408,24.776 L105.408,25.064 Z M116.16,30.848 L115.152,28.904 L115.464,27.848 L117.072,27.848 L116.16,30.848 Z M111.48,28.928 L110.664,28.256 L111.672,28.256 L111.48,28.928 Z M108.336,29.936 L108.336,28.256 L109.68,28.256 L108.336,29.936 Z M103.248,44.696 L106.392,41.72 L110.424,44.24 L112.272,41.288 L109.008,39.248 L111.528,36.896 L111.576,36.896 L111.576,33.992 L107.376,33.992 L107.64,33.296 L104.616,32.144 L103.92,33.992 L101.448,33.992 L101.448,36.896 L102.84,36.896 L101.88,39.368 L103.704,40.064 L104.376,40.472 L101.664,43.016 L103.248,44.696 Z M106.992,38 L106.056,37.4 L106.248,36.896 L108.168,36.896 L106.992,38 Z M124.824,44.408 L128.952,43.472 L128.952,35.384 L130.488,35.12 L129.984,44.168 L133.176,44.336 L133.752,33.776 L136.872,33.776 L136.872,35.072 L133.872,35.072 L133.872,43.952 L142.968,43.952 L142.968,35.072 L139.992,35.072 L139.992,33.776 L143.784,33.776 L143.784,30.368 L139.992,30.368 L139.992,28.976 L143.184,28.976 L143.184,20.984 L131.256,20.984 L130.536,33.968 L130.008,30.896 L128.952,31.064 L128.952,28.16 L130.416,28.16 L130.416,24.104 L128.952,24.104 L128.952,20.336 L125.688,20.336 L125.688,24.104 L124.104,24.104 L124.104,28.16 L125.688,28.16 L125.688,31.664 L123.24,32.096 L123.96,36.272 L125.688,35.96 L125.688,39.896 L123.888,40.304 L124.824,44.408 Z M139.992,25.904 L134.184,25.904 L134.256,24.512 L139.992,24.512 L139.992,25.904 Z M136.872,30.368 L133.944,30.368 L134.016,28.976 L136.872,28.976 L136.872,30.368 Z M139.8,40.544 L136.944,40.544 L136.944,38.456 L139.8,38.456 L139.8,40.544 Z M149.52,43.88 L150.816,31.088 L165.336,31.088 L165.336,27.224 L151.224,27.224 L151.368,25.856 L164.328,24.968 L164.04,20.768 L148.272,21.848 L146.064,43.544 L149.52,43.88 Z M163.896,43.952 L163.896,32.864 L151.056,32.864 L151.056,43.952 L163.896,43.952 Z M160.392,40.28 L154.536,40.28 L154.536,36.584 L160.392,36.584 L160.392,40.28 Z M185.232,32.384 L188.016,29.96 L181.272,22.304 L178.512,24.752 L180.36,26.864 L174.528,27.152 L178.2,22.616 L175.224,20.216 L169.392,27.392 L167.784,27.488 L167.976,31.52 L183.768,30.728 L185.232,32.384 Z M185.664,44.528 L185.664,32.96 L169.608,32.96 L169.608,44.528 L185.664,44.528 Z M181.992,40.544 L173.208,40.544 L173.208,36.872 L181.992,36.872 L181.992,40.544 Z" id="乾数据后台" fill="#FFFFFF" fill-rule="nonzero"></path>
        </g>
    </g>
</svg>