<svg data-v-41fb7185="" viewBox="0 0 32 32" fill="none" xmlns="http://www.w3.org/2000/svg"><path data-v-41fb7185="" d="M15.7466 11.0589L16.5032 8.33499C16.6422 7.83462 16.2659 7.33954 15.7466 7.33954V7.33954C15.2273 7.33954 14.851 7.83462 14.99 8.33499L15.7466 11.0589Z" fill="#FF6F4A"/><path data-v-41fb7185="" fill-rule="evenodd" clip-rule="evenodd" d="M15.7488 11.8856C16.1201 11.8856 16.4458 11.638 16.5452 11.2803L17.3018 8.55643C17.5871 7.5294 16.8148 6.51324 15.7488 6.51324C14.6829 6.51324 13.9106 7.5294 14.1958 8.55643L14.9525 11.2803C15.0519 11.638 15.3776 11.8856 15.7488 11.8856ZM16.5055 8.33521C16.6445 7.83484 16.2682 7.33976 15.7488 7.33976C15.2295 7.33976 14.8532 7.83484 14.9922 8.33522L15.7488 11.0591L16.5055 8.33521Z" fill="#FF6F4A"/><path data-v-41fb7185="" d="M19.4453 17.2956L21.4232 19.3109C21.7869 19.6815 22.4038 19.6033 22.6634 19.1536V19.1536C22.923 18.7039 22.6824 18.1305 22.1796 18.0008L19.4453 17.2956Z" fill="#FF6F4A"/><path data-v-41fb7185="" fill-rule="evenodd" clip-rule="evenodd" d="M18.7282 16.8826C18.5426 17.2041 18.5941 17.6099 18.8541 17.8748L20.832 19.8902C21.5787 20.6509 22.845 20.4903 23.3779 19.5671C23.9109 18.644 23.4169 17.467 22.3847 17.2008L19.6504 16.4956C19.291 16.4029 18.9138 16.5612 18.7282 16.8826ZM21.4219 19.3112C21.7856 19.6818 22.4025 19.6036 22.6621 19.1539C22.9218 18.7042 22.6811 18.1308 22.1783 18.0011L19.444 17.2959L21.4219 19.3112Z" fill="#FF6F4A"/><path data-v-41fb7185="" d="M12.3274 13.1866L10.34 11.1648C9.97583 10.7943 9.35887 10.8729 9.09914 11.3227V11.3227C8.83942 11.7726 9.07989 12.3462 9.58277 12.4763L12.3274 13.1866Z" fill="#FF6F4A"/><path data-v-41fb7185="" fill-rule="evenodd" clip-rule="evenodd" d="M13.0428 13.5995C13.2285 13.2778 13.1768 12.8718 12.9164 12.6069L10.9289 10.5851C10.1818 9.82496 8.91583 9.98612 8.38291 10.9092C7.84999 11.8322 8.3434 13.0091 9.37525 13.2761L12.1199 13.9864C12.4795 14.0795 12.857 13.9212 13.0428 13.5995ZM10.3395 11.1645C9.97538 10.794 9.35842 10.8726 9.0987 11.3224C8.83897 11.7723 9.07944 12.3458 9.58232 12.476L12.327 13.1863L10.3395 11.1645Z" fill="#FF6F4A"/><path data-v-41fb7185="" d="M19.281 13.1809L22.0312 12.4679C22.5341 12.3376 22.7744 11.7639 22.5147 11.3139V11.3139C22.2549 10.864 21.6379 10.7853 21.2735 11.1557L19.281 13.1809Z" fill="#FF6F4A"/><path data-v-41fb7185="" fill-rule="evenodd" clip-rule="evenodd" d="M18.5652 13.5939C18.751 13.9157 19.1287 14.0739 19.4884 13.9807L22.2386 13.2677C23.2703 13.0002 23.7634 11.8233 23.2305 10.9004C22.6976 9.97735 21.4319 9.81595 20.6844 10.5757L18.6918 12.6009C18.4312 12.8658 18.3794 13.2721 18.5652 13.5939ZM22.0312 12.4676C22.5341 12.3372 22.7745 11.7635 22.5147 11.3136C22.255 10.8637 21.6379 10.785 21.2736 11.1553L19.281 13.1806L22.0312 12.4676Z" fill="#FF6F4A"/><path data-v-41fb7185="" d="M10.5817 14.9858L5.4019 14.1225C4.86843 14.0336 4.38281 14.445 4.38281 14.9858V14.9858C4.38281 15.5267 4.86844 15.938 5.4019 15.8491L10.5817 14.9858Z" fill="#FCBD54"/><path data-v-41fb7185="" fill-rule="evenodd" clip-rule="evenodd" d="M11.4073 14.985C11.4073 14.5809 11.1152 14.2361 10.7166 14.1697L5.53684 13.3064C4.49959 13.1335 3.55536 13.9334 3.55536 14.985C3.55536 16.0365 4.49959 16.8364 5.53684 16.6635L10.7166 15.8002C11.1152 15.7338 11.4073 15.389 11.4073 14.985ZM5.40096 14.1217C4.8675 14.0328 4.38187 14.4442 4.38187 14.985C4.38187 15.5258 4.8675 15.9372 5.40096 15.8483L10.5807 14.985L5.40096 14.1217Z" fill="#FCBD54"/><path data-v-41fb7185="" d="M20.9131 14.9849L26.0929 15.8482C26.6264 15.9371 27.112 15.5258 27.112 14.9849V14.9849C27.112 14.4441 26.6264 14.0327 26.0929 14.1216L20.9131 14.9849Z" fill="#FCBD54"/><path data-v-41fb7185="" fill-rule="evenodd" clip-rule="evenodd" d="M20.086 14.9849C20.086 15.389 20.3781 15.7338 20.7767 15.8002L25.9564 16.6635C26.9937 16.8364 27.9379 16.0365 27.9379 14.9849C27.9379 13.9334 26.9937 13.1335 25.9564 13.3064L20.7767 14.1697C20.3781 14.2361 20.086 14.5809 20.086 14.9849ZM26.0923 15.8482C26.6258 15.9371 27.1114 15.5258 27.1114 14.9849C27.1114 14.4441 26.6258 14.0327 26.0923 14.1216L20.9125 14.9849L26.0923 15.8482Z" fill="#FCBD54"/><path data-v-41fb7185="" d="M15.4385 15.3101L9.65607 23.7172C9.34464 24.17 9.4853 24.7921 9.96123 25.0669V25.0669C10.4457 25.3466 11.0658 25.145 11.2931 24.6338L15.4385 15.3101Z" fill="#FF6F4A"/><path data-v-41fb7185="" fill-rule="evenodd" clip-rule="evenodd" d="M15.8436 14.5887C15.471 14.3801 15.0008 14.4896 14.7588 14.8415L8.97636 23.2486C8.39169 24.0986 8.65576 25.2666 9.54925 25.7825C10.4588 26.3076 11.6229 25.929 12.0496 24.9694L16.195 15.6457C16.3685 15.2555 16.2162 14.7973 15.8436 14.5887ZM9.65735 23.717C9.34591 24.1698 9.48658 24.7919 9.96251 25.0667C10.447 25.3464 11.0671 25.1448 11.2944 24.6336L15.4398 15.3099L9.65735 23.717Z" fill="#FF6F4A"/><path data-v-41fb7185="" d="M18.4009 10.4791L21.7073 6.47558C22.0515 6.05882 21.9385 5.43267 21.4704 5.16241V5.16241C21.0023 4.89215 20.4036 5.10743 20.2148 5.61389L18.4009 10.4791Z" fill="#FCBD54"/><path data-v-41fb7185="" fill-rule="evenodd" clip-rule="evenodd" d="M17.9869 11.1947C18.3363 11.3965 18.7804 11.3164 19.0374 11.0053L22.3438 7.00176C23.0136 6.1908 22.7938 4.97239 21.8829 4.4465C20.9721 3.92061 19.807 4.33951 19.4396 5.32502L17.6257 10.1902C17.4847 10.5683 17.6374 10.993 17.9869 11.1947ZM21.7065 6.47545C22.0507 6.05869 21.9378 5.43254 21.4697 5.16228C21.0016 4.89202 20.4029 5.1073 20.214 5.61376L18.4001 10.479L21.7065 6.47545Z" fill="#FCBD54"/><path data-v-41fb7185="" d="M18.3779 19.4585L20.2225 24.3802C20.4123 24.8866 21.0114 25.1015 21.4798 24.831V24.831C21.9482 24.5606 22.0617 23.9343 21.718 23.5167L18.3779 19.4585Z" fill="#FCBD54"/><path data-v-41fb7185="" fill-rule="evenodd" clip-rule="evenodd" d="M17.9661 18.7423C17.6162 18.9443 17.4636 19.3697 17.6054 19.7481L19.45 24.6698C19.819 25.6545 20.9838 26.0722 21.8945 25.5464C22.8051 25.0206 23.0258 23.803 22.3576 22.9911L19.0175 18.9328C18.7608 18.6208 18.316 18.5402 17.9661 18.7423ZM20.2239 24.3798C20.4137 24.8862 21.0128 25.101 21.4812 24.8306C21.9496 24.5602 22.0631 23.9339 21.7194 23.5163L18.3794 19.458L20.2239 24.3798Z" fill="#FCBD54"/><path data-v-41fb7185="" d="M13.2125 10.5107L11.371 5.59461C11.1813 5.08816 10.5822 4.87328 10.1138 5.14369V5.14369C9.64548 5.41409 9.53204 6.04035 9.87578 6.45787L13.2125 10.5107Z" fill="#FCBD54"/><path data-v-41fb7185="" fill-rule="evenodd" clip-rule="evenodd" d="M13.6258 11.2272C13.9757 11.0252 14.1283 10.5998 13.9865 10.2215L12.145 5.30534C11.7761 4.32059 10.6113 3.90279 9.70062 4.42857C8.78993 4.95435 8.56935 6.17204 9.23773 6.98386L12.5745 11.0367C12.8313 11.3487 13.2759 11.4292 13.6258 11.2272ZM11.371 5.59527C11.1813 5.08882 10.5822 4.87394 10.1139 5.14435C9.64551 5.41476 9.53207 6.04101 9.87581 6.45853L13.2125 10.5114L11.371 5.59527Z" fill="#FCBD54"/></svg>