<?xml version="1.0" standalone="no"?>
<!DOCTYPE svg PUBLIC "-//W3C//DTD SVG 1.1//EN" "http://www.w3.org/Graphics/SVG/1.1/DTD/svg11.dtd" >
<svg xmlns="http://www.w3.org/2000/svg">
<metadata>Generated by IcoMoon</metadata>
<defs>
<font id="qianpai-icons" horiz-adv-x="1024">
<font-face units-per-em="1024" ascent="960" descent="-64" />
<missing-glyph horiz-adv-x="1024" />
<glyph unicode="&#x20;" horiz-adv-x="512" d="" />
<glyph unicode="&#xe900;" glyph-name="benchmark" d="M160 704h576c70.692 0 128-57.308 128-128v-384c0-70.692-57.308-128-128-128h-576c-70.692 0-128 57.308-128 128v384c0 70.692 57.308 128 128 128zM160 640c-35.346 0-64-28.654-64-64v-384c0-35.346 28.654-64 64-64h576c35.346 0 64 28.654 64 64v384c0 35.346-28.654 64-64 64h-576zM192 768c-17.673 0-32 14.327-32 32s14.327 32 32 32h640c88.366 0 160-71.634 160-160v-459.126c0-17.673-14.327-32-32-32s-32 14.327-32 32v459.126c0 53.019-42.981 96-96 96h-640zM128 576h58.634l100.87-318.387h1.491l100.373 318.387h58.634l-127.205-384h-65.59l-127.205 384zM606.362 576c45.324 0 80.819-8.798 106.485-27.429 27.304-19.148 42.594-48.647 46.416-89.013h-58.976c-5.461 23.806-15.29 41.402-30.58 51.752-15.29 10.868-37.133 16.043-66.621 16.043-25.666 0-45.324-3.623-58.976-10.868-16.928-8.28-25.119-21.736-25.119-40.367 0-16.561 9.283-29.499 28.942-39.332 8.737-4.658 31.126-12.42 67.713-22.771 52.423-15.526 86.826-27.429 102.116-36.226 33.311-19.148 50.239-45.542 50.239-79.698 0-33.121-13.652-58.997-40.956-78.146-27.304-18.631-65.529-27.946-114.676-27.946-47.509 0-84.642 9.315-111.399 26.911-32.218 21.736-49.693 55.892-52.969 102.469h58.976c4.369-28.981 15.29-50.199 32.765-62.62 15.836-11.385 39.863-17.078 72.628-17.078 29.488 0 52.969 5.175 70.444 14.491s26.212 22.253 26.212 38.814c0 20.701-12.56 36.744-37.133 48.647-8.737 4.14-34.403 12.42-77.543 24.841-48.055 14.491-77.543 24.323-89.556 30.534-30.034 17.078-44.778 41.919-44.778 74.005 0 32.604 14.198 57.962 43.14 76.593 27.304 17.596 61.706 26.394 103.208 26.394z" />
<glyph unicode="&#xe901;" glyph-name="benchmark-act" d="M160 704c-70.692 0-128-57.308-128-128v-384c0-70.692 57.308-128 128-128h576c70.692 0 128 57.308 128 128v384c0 70.692-57.308 128-128 128h-576zM128 576h58.634l100.87-318.387h1.491l100.373 318.387h58.634l-127.205-384h-65.59l-127.205 384zM606.362 576c45.324 0 80.819-8.798 106.485-27.429 27.304-19.148 42.594-48.647 46.416-89.013h-58.976c-5.461 23.806-15.29 41.402-30.58 51.752-15.29 10.868-37.133 16.043-66.621 16.043-25.666 0-45.324-3.623-58.976-10.868-16.928-8.28-25.119-21.736-25.119-40.367 0-16.561 9.283-29.499 28.942-39.332 8.737-4.658 31.126-12.42 67.713-22.771 52.423-15.526 86.826-27.429 102.116-36.226 33.311-19.148 50.239-45.542 50.239-79.698 0-33.121-13.652-58.997-40.956-78.146-27.304-18.631-65.529-27.946-114.676-27.946-47.509 0-84.642 9.315-111.399 26.911-32.218 21.736-49.693 55.892-52.969 102.469h58.976c4.369-28.981 15.29-50.199 32.765-62.62 15.836-11.385 39.863-17.078 72.628-17.078 29.488 0 52.969 5.175 70.444 14.491s26.212 22.253 26.212 38.814c0 20.701-12.56 36.744-37.133 48.647-8.737 4.14-34.403 12.42-77.543 24.841-48.055 14.491-77.543 24.323-89.556 30.534-30.034 17.078-44.778 41.919-44.778 74.005 0 32.604 14.198 57.962 43.14 76.593 27.304 17.596 61.706 26.394 103.208 26.394zM192 768h640c53.019 0 96-42.981 96-96v-459.126c0-17.673 14.327-32 32-32s32 14.327 32 32v459.126c0 88.366-71.634 160-160 160h-640c-17.673 0-32-14.327-32-32s14.327-32 32-32z" />
<glyph unicode="&#xe902;" glyph-name="dashboard" d="M677.39 128l81.137-81.137c12.497-12.497 12.497-32.758 0-45.255s-32.758-12.497-45.255 0l-126.392 126.392h-149.861l-126.392-126.392c-12.497-12.497-32.758-12.497-45.255 0s-12.497 32.758 0 45.255l81.137 81.137h-90.51c-70.692 0-128 57.308-128 128v512h-96c-17.673 0-32 14.327-32 32s14.327 32 32 32h960c17.673 0 32-14.327 32-32s-14.327-32-32-32h-96v-512c0-70.692-57.308-128-128-128h-90.61zM192 768v-512c0-35.346 28.654-64 64-64h512c35.346 0 64 28.654 64 64v512h-640zM512.726 344.14l-111.009 120.209-79.93-116.593c-9.993-14.577-29.911-18.293-44.487-8.3s-18.293 29.911-8.3 44.487l102.614 149.683c11.617 16.945 35.964 18.709 49.903 3.616l114.293-123.765 183.691 206.182c11.756 13.196 31.984 14.363 45.18 2.606s14.363-31.984 2.606-45.18l-207.159-232.524c-12.574-14.114-34.578-14.31-47.402-0.423z" />
<glyph unicode="&#xe903;" glyph-name="dashboard-act" d="M677.39 128l81.137-81.137c12.497-12.497 12.497-32.758 0-45.255s-32.758-12.497-45.255 0l-126.392 126.392h-149.861l-126.392-126.392c-12.497-12.497-32.758-12.497-45.255 0s-12.497 32.758 0 45.255l81.137 81.137h-90.51c-70.692 0-128 57.308-128 128v512h-96c-17.673 0-32 14.327-32 32s14.327 32 32 32h960c17.673 0 32-14.327 32-32s-14.327-32-32-32h-96v-512c0-70.692-57.308-128-128-128h-90.61zM512.726 344.14c12.824-13.887 34.828-13.691 47.402 0.423l207.159 232.524c11.756 13.196 10.589 33.423-2.606 45.18s-33.423 10.589-45.18-2.606l-183.691-206.182-114.293 123.765c-13.938 15.093-38.286 13.329-49.903-3.616l-102.614-149.683c-9.993-14.577-6.277-34.494 8.3-44.487s34.494-6.277 44.487 8.3l79.93 116.593 111.009-120.209z" />
<glyph unicode="&#xe904;" glyph-name="military" d="M384 616.004c39.671 15.493 82.843 23.996 128 23.996s88.329-8.503 128-23.996v279.996h-256v-279.996zM320 583.074v312.926h-192v-235.048l141.992-117.341c15.415 14.6 32.15 27.82 50.008 39.464zM227.674 495.557l-140.443 116.061c-14.712 12.158-23.231 30.248-23.231 49.334v235.048c0 35.346 28.654 64 64 64h768c35.346 0 64-28.654 64-64v-235.048c0-19.086-8.518-37.176-23.231-49.334l-140.443-116.061c42.554-58.194 67.674-129.942 67.674-207.557 0-194.404-157.596-352-352-352s-352 157.596-352 352c0 77.615 25.12 149.363 67.674 207.557zM754.008 543.611l141.992 117.341v235.048h-192v-312.926c17.857-11.643 34.592-24.864 50.008-39.464zM512 0c159.058 0 288 128.942 288 288s-128.942 288-288 288c-159.058 0-288-128.942-288-288s128.942-288 288-288zM512 170.468l-92.502-41.474c-6.451-2.892-14.024-0.007-16.916 6.443-0.928 2.071-1.29 4.351-1.047 6.608l10.859 100.791-68.029 75.159c-4.744 5.241-4.341 13.336 0.9 18.080 1.683 1.523 3.74 2.571 5.961 3.037l99.214 20.818 50.458 87.925c3.519 6.131 11.342 8.249 17.473 4.731 1.968-1.13 3.601-2.762 4.731-4.731l50.458-87.925 99.214-20.818c6.919-1.452 11.35-8.237 9.899-15.156-0.466-2.221-1.514-4.278-3.037-5.961l-68.029-75.159 10.859-100.791c0.757-7.029-4.327-13.34-11.355-14.097-2.256-0.243-4.537 0.118-6.608 1.047l-92.502 41.474z" />
<glyph unicode="&#xe905;" glyph-name="military-act" d="M701.087 658.642c1.87 4.065 2.913 8.59 2.913 13.358v288h192c35.346 0 64-28.654 64-64v-235.048c0-19.086-8.518-37.176-23.231-49.334l-91.033-75.228c-38.048 51.039-87.529 93.054-144.65 122.253zM640 683.936c-40.324 13.026-83.34 20.064-128 20.064s-87.676-7.037-128-20.064v276.064h256v-276.064zM322.913 658.642c-57.12-29.199-106.601-71.214-144.65-122.253l-91.033 75.228c-14.712 12.158-23.231 30.248-23.231 49.334v235.048c0 35.346 28.654 64 64 64h192v-288c0-4.768 1.043-9.293 2.913-13.358zM512-64c-194.404 0-352 157.596-352 352s157.596 352 352 352c194.404 0 352-157.596 352-352s-157.596-352-352-352zM512 170.468l92.502-41.474c2.071-0.928 4.351-1.29 6.608-1.047 7.029 0.757 12.112 7.069 11.355 14.097l-10.859 100.791 68.029 75.159c1.523 1.683 2.571 3.74 3.037 5.961 1.452 6.919-2.98 13.704-9.899 15.156l-99.214 20.818-50.458 87.925c-1.13 1.968-2.762 3.601-4.731 4.731-6.131 3.519-13.954 1.401-17.473-4.731l-50.458-87.925-99.214-20.818c-2.221-0.466-4.278-1.514-5.961-3.037-5.241-4.744-5.644-12.838-0.9-18.080l68.029-75.159-10.859-100.791c-0.243-2.256 0.118-4.537 1.047-6.608 2.892-6.451 10.466-9.335 16.916-6.443l92.502 41.474z" />
<glyph unicode="&#xe906;" glyph-name="accounts" d="M832 320v480c0 35.346-28.654 64-64 64h-512c-35.346 0-64-28.654-64-64v-704c0-35.346 28.654-64 64-64h288v224c0 35.346 28.654 64 64 64h224zM805.49 256h-197.49v-197.49l197.49 197.49zM256 928h512c70.692 0 128-57.308 128-128v-517.49c0-16.974-6.743-33.253-18.745-45.255l-250.51-250.51c-12.002-12.002-28.281-18.745-45.255-18.745h-325.49c-70.692 0-128 57.308-128 128v704c0 70.692 57.308 128 128 128zM320 704h384c17.673 0 32-14.327 32-32s-14.327-32-32-32h-384c-17.673 0-32 14.327-32 32s14.327 32 32 32zM320 512h384c17.673 0 32-14.327 32-32s-14.327-32-32-32h-384c-17.673 0-32 14.327-32 32s14.327 32 32 32z" />
<glyph unicode="&#xe907;" glyph-name="accounts-act" d="M896 320h-288c-35.346 0-64-28.654-64-64v-288h-288c-70.692 0-128 57.308-128 128v704c0 70.692 57.308 128 128 128h512c70.692 0 128-57.308 128-128v-480zM889.6 256l-281.6-281.6v243.2c0 21.208 17.192 38.4 38.4 38.4h243.2zM320 704c-17.673 0-32-14.327-32-32s14.327-32 32-32h384c17.673 0 32 14.327 32 32s-14.327 32-32 32h-384zM320 512c-17.673 0-32-14.327-32-32s14.327-32 32-32h384c17.673 0 32 14.327 32 32s-14.327 32-32 32h-384z" />
<glyph unicode="&#xe908;" glyph-name="issues" d="M512 960c282.304 0 512-229.696 512-512s-229.696-512-512-512c-282.304 0-512 229.696-512 512s229.696 512 512 512zM512 896c-246.958 0-448-201.042-448-448s201.042-448 448-448c246.958 0 448 201.042 448 448s-201.042 448-448 448zM509.747 179.32c-29.402 0-53.397 23.431-53.397 52.27s23.882 52.27 53.397 52.27c29.402 0 53.397-23.431 53.397-52.27s-23.882-52.27-53.397-52.27zM653.039 507.142c-10.477-16.447-32.669-38.865-66.69-67.14-17.574-14.645-28.613-26.473-32.782-35.372-4.281-8.899-6.196-24.896-5.858-47.877h-75.927c-0.113 10.927-0.338 17.574-0.338 19.939 0 24.558 4.055 44.835 12.166 60.719s24.445 33.795 48.778 53.509c24.333 19.827 38.977 32.782 43.709 38.977 7.322 9.688 11.040 20.39 11.040 32.106 0 16.222-6.534 30.078-19.489 41.681s-30.641 17.348-52.608 17.348c-21.291 0-39.090-6.083-53.397-18.137s-26.586-38.639-29.515-55.086c-2.704-15.546-77.617-22.080-76.716 9.35 0.901 31.542 17.236 65.676 45.398 90.459 28.050 24.783 65 37.175 110.624 37.175 47.989 0 86.178-12.504 114.566-37.626s42.584-54.298 42.584-87.643c0.111-18.587-5.184-35.936-15.548-52.383z" />
<glyph unicode="&#xe909;" glyph-name="issues-act" d="M512 960c-282.304 0-512-229.696-512-512s229.696-512 512-512c282.304 0 512 229.696 512 512s-229.696 512-512 512zM509.747 179.32c-29.402 0-53.397 23.431-53.397 52.27s23.882 52.27 53.397 52.27c29.402 0 53.397-23.431 53.397-52.27s-23.882-52.27-53.397-52.27zM653.039 507.142c-10.477-16.447-32.669-38.865-66.69-67.14-17.574-14.645-28.613-26.473-32.782-35.372-4.281-8.899-6.196-24.896-5.858-47.877h-75.927c-0.113 10.927-0.338 17.574-0.338 19.939 0 24.558 4.055 44.835 12.166 60.719s24.445 33.795 48.778 53.509c24.333 19.827 38.977 32.782 43.709 38.977 7.322 9.688 11.040 20.39 11.040 32.106 0 16.222-6.534 30.078-19.489 41.681s-30.641 17.348-52.608 17.348c-21.291 0-39.090-6.083-53.397-18.137s-26.586-38.639-29.515-55.086c-2.704-15.546-77.617-22.080-76.716 9.35 0.901 31.542 17.236 65.676 45.398 90.459 28.050 24.783 65 37.175 110.624 37.175 47.989 0 86.178-12.504 114.566-37.626s42.584-54.298 42.584-87.643c0.111-18.587-5.184-35.936-15.548-52.383v0z" />
<glyph unicode="&#xe90a;" glyph-name="analyze" d="M448 832v-448h448c0-247.424-200.576-448-448-448s-448 200.576-448 448c0 247.424 200.576 448 448 448zM384 762.691c-181.614-30.469-320-188.419-320-378.691 0-212.077 171.923-384 384-384 190.272 0 348.222 138.386 378.691 320h-442.691v442.691zM1024 512h-448v448c247.424 0 448-200.576 448-448zM640 890.691v-314.691h314.691c-26.977 160.8-153.89 287.713-314.691 314.691z" />
<glyph unicode="&#xe90b;" glyph-name="analyze-act" d="M448 832v-448h448c0-247.424-200.576-448-448-448s-448 200.576-448 448c0 247.424 200.576 448 448 448zM1024 512h-448v448c247.424 0 448-200.576 448-448z" />
<glyph unicode="&#xe90c;" glyph-name="marketing" d="M256 896c106.039 0 192-85.961 192-192v-192h-192c-106.039 0-192 85.961-192 192s85.961 192 192 192zM384 576v128c0 70.692-57.308 128-128 128s-128-57.308-128-128c0-70.692 57.308-128 128-128h128zM256 0c-106.039 0-192 85.961-192 192s85.961 192 192 192h192v-192c0-106.039-85.961-192-192-192zM384 320h-128c-70.692 0-128-57.308-128-128s57.308-128 128-128c70.692 0 128 57.308 128 128v128zM768 896c106.039 0 192-85.961 192-192s-85.961-192-192-192h-192v192c0 106.039 85.961 192 192 192zM640 576h128c70.692 0 128 57.308 128 128s-57.308 128-128 128c-70.692 0-128-57.308-128-128v-128zM768 0c-106.039 0-192 85.961-192 192v192h192c106.039 0 192-85.961 192-192s-85.961-192-192-192zM640 320v-128c0-70.692 57.308-128 128-128s128 57.308 128 128c0 70.692-57.308 128-128 128h-128z" />
<glyph unicode="&#xe90d;" glyph-name="marketing-act" d="M256 896c106.039 0 192-85.961 192-192v-192h-192c-106.039 0-192 85.961-192 192s85.961 192 192 192zM256 0c-106.039 0-192 85.961-192 192s85.961 192 192 192h192v-192c0-106.039-85.961-192-192-192zM768 896c106.039 0 192-85.961 192-192s-85.961-192-192-192h-192v192c0 106.039 85.961 192 192 192zM768 0c-106.039 0-192 85.961-192 192v192h192c106.039 0 192-85.961 192-192s-85.961-192-192-192z" />
<glyph unicode="&#xe90e;" glyph-name="private" d="M368.655 483.6l-304.655 195.642v-487.242c0-35.346 28.654-64 64-64h768c35.346 0 64 28.654 64 64v487.252l-304.97-195.639 163.18-115.706c14.417-10.222 17.817-30.196 7.594-44.613s-30.196-17.817-44.613-7.594l-185.338 131.419c-53.955-23.841-115.592-23.73-168.231-0.163l-185.109-131.256c-14.417-10.222-34.391-6.822-44.613 7.594s-6.822 34.391 7.594 44.613l163.162 115.694zM945.063 745.098c-11.74 14.001-29.362 22.902-49.063 22.902h-768c-19.515 0-36.99-8.735-48.729-22.508l342.265-220.014c52.78-42.618 128.148-42.618 183.74 2.029l334.669 214.916c1.652 1.061 3.365 1.951 5.118 2.674zM128 832h768c70.692 0 128-57.308 128-128v-512c0-70.692-57.308-128-128-128h-768c-70.692 0-128 57.308-128 128v512c0 70.692 57.308 128 128 128z" />
<glyph unicode="&#xe90f;" glyph-name="private-act" d="M999.364 779.512c-2.359-0.816-4.659-1.923-6.852-3.331l-387.236-248.673c-55.592-44.647-130.96-44.647-183.74-2.029l-390.048 250.702c-2.193 1.408-4.494 2.515-6.852 3.331 23.286 31.821 60.912 52.488 103.364 52.488h768c42.452 0 80.078-20.667 103.364-52.488zM1023.043 719.729c0.632-5.155 0.957-10.404 0.957-15.729v-512c0-70.692-57.308-128-128-128h-768c-70.692 0-128 57.308-128 128v512c0 5.325 0.325 10.573 0.957 15.727l367.698-236.127-163.162-115.694c-14.417-10.222-17.817-30.196-7.594-44.613s30.196-17.817 44.613-7.594l185.109 131.256c52.64-23.567 114.276-23.679 168.231 0.163l185.338-131.419c14.417-10.222 34.391-6.822 44.613 7.594s6.822 34.391-7.594 44.613l-163.181 115.707 368.014 236.116z" />
<glyph unicode="&#xe910;" glyph-name="pirate" d="M64 832h896c17.673 0 32 14.327 32 32s-14.327 32-32 32h-896c-17.673 0-32-14.327-32-32s14.327-32 32-32zM320 576h384c17.673 0 32 14.327 32 32s-14.327 32-32 32h-384c-17.673 0-32-14.327-32-32s14.327-32 32-32zM320 384h384c17.673 0 32 14.327 32 32s-14.327 32-32 32h-384c-17.673 0-32-14.327-32-32s14.327-32 32-32zM128 896h768v-598.481c0-45.525-24.181-87.625-63.505-110.564l-256-149.333c-39.854-23.248-89.137-23.248-128.991 0l-256 149.333c-39.324 22.939-63.505 65.038-63.505 110.564v598.481zM192 832v-534.481c0-22.763 12.090-43.812 31.752-55.282l256-149.333c19.927-11.624 44.568-11.624 64.495 0l256 149.333c19.662 11.469 31.752 32.519 31.752 55.282v534.481h-640z" />
<glyph unicode="&#xe911;" glyph-name="pirate-act" d="M896 832v-534.481c0-45.525-24.181-87.625-63.505-110.564l-256-149.333c-39.854-23.248-89.137-23.248-128.991 0l-256 149.333c-39.324 22.939-63.505 65.038-63.505 110.564v534.481h-64c-17.673 0-32 14.327-32 32s14.327 32 32 32h896c17.673 0 32-14.327 32-32s-14.327-32-32-32h-64zM320 576h384c17.673 0 32 14.327 32 32s-14.327 32-32 32h-384c-17.673 0-32-14.327-32-32s14.327-32 32-32zM320 384h384c17.673 0 32 14.327 32 32s-14.327 32-32 32h-384c-17.673 0-32-14.327-32-32s14.327-32 32-32z" />
<glyph unicode="&#xe912;" glyph-name="authority" d="M256 576v128c0 141.385 114.615 256 256 256s256-114.615 256-256v-128h32c70.692 0 128-57.308 128-128v-384c0-70.692-57.308-128-128-128h-576c-70.692 0-128 57.308-128 128v384c0 70.692 57.308 128 128 128h32zM320 576h384v128c0 106.039-85.961 192-192 192s-192-85.961-192-192v-128zM256 512h-32c-35.346 0-64-28.654-64-64v-384c0-35.346 28.654-64 64-64h576c35.346 0 64 28.654 64 64v384c0 35.346-28.654 64-64 64h-544zM467.2 222.273c-30.45 16.096-51.2 48.088-51.2 84.927 0 53.019 42.981 96 96 96s96-42.981 96-96c0-36.839-20.75-68.831-51.2-84.927v-87.873c0-24.742-20.058-44.8-44.8-44.8s-44.8 20.058-44.8 44.8v87.873z" />
<glyph unicode="&#xe913;" glyph-name="authority-act" d="M224 576h576c70.692 0 128-57.308 128-128v-384c0-70.692-57.308-128-128-128h-576c-70.692 0-128 57.308-128 128v384c0 70.692 57.308 128 128 128zM467.2 222.273v-87.873c0-24.742 20.058-44.8 44.8-44.8s44.8 20.058 44.8 44.8v87.873c30.45 16.096 51.2 48.088 51.2 84.927 0 53.019-42.981 96-96 96s-96-42.981-96-96c0-36.839 20.75-68.831 51.2-84.927zM768 640h-64v64c0 106.039-85.961 192-192 192s-192-85.961-192-192v-64h-64v64c0 141.385 114.615 256 256 256s256-114.615 256-256v-64z" />
<glyph unicode="&#xe914;" glyph-name="monitor" d="M517.294 351.857l51.367 123.209c6.801 16.312 25.537 24.023 41.85 17.222s24.023-25.537 17.222-41.85l-51.368-123.21c19.428-17.567 31.635-42.972 31.635-71.227 0-53.019-42.981-96-96-96s-96 42.981-96 96c0 53.019 42.981 96 96 96 1.776 0 3.541-0.048 5.294-0.143zM0 320c0 282.77 229.23 512 512 512s512-229.23 512-512c0-93.258-24.933-180.692-68.496-256h-887.007c-43.564 75.308-68.496 162.742-68.496 256zM916.907 128c28.196 59.33 43.093 124.524 43.093 192 0 247.424-200.576 448-448 448s-448-200.576-448-448c0-67.476 14.897-132.67 43.093-192h809.814zM192 192c-35.346 0-64 28.654-64 64s28.654 64 64 64c35.346 0 64-28.654 64-64s-28.654-64-64-64zM832 192c-35.346 0-64 28.654-64 64s28.654 64 64 64c35.346 0 64-28.654 64-64s-28.654-64-64-64zM256 448c-35.346 0-64 28.654-64 64s28.654 64 64 64c35.346 0 64-28.654 64-64s-28.654-64-64-64zM768 448c-35.346 0-64 28.654-64 64s28.654 64 64 64c35.346 0 64-28.654 64-64s-28.654-64-64-64zM512 576c-35.346 0-64 28.654-64 64s28.654 64 64 64c35.346 0 64-28.654 64-64s-28.654-64-64-64z" />
<glyph unicode="&#xe915;" glyph-name="monitor-act" d="M68.496 64c-43.564 75.308-68.496 162.742-68.496 256 0 282.77 229.23 512 512 512s512-229.23 512-512c0-93.258-24.933-180.692-68.496-256h-887.007zM517.294 351.857c-1.752 0.095-3.518 0.143-5.294 0.143-53.019 0-96-42.981-96-96s42.981-96 96-96c53.019 0 96 42.981 96 96 0 28.256-12.207 53.66-31.635 71.227l51.368 123.211c6.801 16.312-0.91 35.049-17.222 41.85s-35.049-0.91-41.85-17.222l-51.367-123.209zM192 192c35.346 0 64 28.654 64 64s-28.654 64-64 64c-35.346 0-64-28.654-64-64s28.654-64 64-64zM832 192c35.346 0 64 28.654 64 64s-28.654 64-64 64c-35.346 0-64-28.654-64-64s28.654-64 64-64zM256 448c35.346 0 64 28.654 64 64s-28.654 64-64 64c-35.346 0-64-28.654-64-64s28.654-64 64-64zM768 448c35.346 0 64 28.654 64 64s-28.654 64-64 64c-35.346 0-64-28.654-64-64s28.654-64 64-64zM512 576c35.346 0 64 28.654 64 64s-28.654 64-64 64c-35.346 0-64-28.654-64-64s28.654-64 64-64z" />
<glyph unicode="&#xe916;" glyph-name="user" d="M509.302 960c140.11 0 258.698-113.756 258.698-256.064 0-142.18-113.192-255.936-258.698-255.936s-253.302 113.756-253.302 256c0 142.244 113.192 256 253.302 256zM509.302 896c-104.856 0-189.302-85.198-189.302-192 0-108.92 81.134-192 189.302-192 109.624 0 194.698 84.571 194.698 191.936 0 105.43-88.383 192.064-194.698 192.064zM401.369 358.4h221.262c188.036 0 337.369-146.398 337.369-326.639v-22.562c0-73.199-149.333-73.199-337.369-73.199h-221.262c-182.498 0-337.369 0-337.369 73.199v22.562c0 180.241 154.871 326.639 337.369 326.639zM896 31.761c0 145.109-120.925 262.639-273.369 262.639h-221.262c-148.974 0-273.369-119.542-273.369-262.639v-12.028c9.192-4.115 24.614-8.15 45.661-11.279 47.106-7.005 98.009-8.454 227.707-8.454h221.262c132.374 0 183.115 1.435 229.679 8.438 20.194 3.037 34.923 6.918 43.69 10.825v12.498z" />
<glyph unicode="&#xe917;" glyph-name="user-act" d="M509.302 960c140.11 0 258.698-113.756 258.698-256.064 0-142.18-113.192-255.936-258.698-255.936s-253.302 113.756-253.302 256c0 142.244 113.192 256 253.302 256zM401.369 358.4h221.262c188.036 0 337.369-146.398 337.369-326.639v-22.562c0-73.199-149.333-73.199-337.369-73.199h-221.262c-182.498 0-337.369 0-337.369 73.199v22.562c0 180.241 154.871 326.639 337.369 326.639z" />
<glyph unicode="&#xe918;" glyph-name="advertising" d="M160 704h576c70.692 0 128-57.308 128-128v-384c0-70.692-57.308-128-128-128h-576c-70.692 0-128 57.308-128 128v384c0 70.692 57.308 128 128 128zM160 640c-35.346 0-64-28.654-64-64v-384c0-35.346 28.654-64 64-64h576c35.346 0 64 28.654 64 64v384c0 35.346-28.654 64-64 64h-576zM192 768c-17.673 0-32 14.327-32 32s14.327 32 32 32h640c88.366 0 160-71.634 160-160v-459.126c0-17.673-14.327-32-32-32s-32 14.327-32 32v459.126c0 53.019-42.981 96-96 96h-640zM262.163 556.8h57.609l127.763-331.719h-54.357l-31.128 85.485h-142.63l-31.128-85.485h-53.893l127.763 331.719zM234.752 352.379h111.967l-54.822 150.063h-1.858l-55.287-150.063zM480.057 556.8h120.794c53.428 0 93.848-14.867 121.723-45.065 26.017-27.876 39.026-68.295 39.026-120.794 0-52.034-13.473-92.454-39.955-121.259-27.876-29.734-68.295-44.601-121.723-44.601h-119.865v331.719zM530.697 513.593v-245.305h59.932c41.813 0 72.941 10.221 92.454 30.199 19.048 19.977 28.805 50.641 28.805 92.454 0 42.743-9.756 73.406-28.34 92.919-19.513 19.977-50.176 29.734-91.989 29.734h-60.862z" />
<glyph unicode="&#xe919;" glyph-name="advertising-act" d="M160 704h576c70.692 0 128-57.308 128-128v-384c0-70.692-57.308-128-128-128h-576c-70.692 0-128 57.308-128 128v384c0 70.692 57.308 128 128 128zM262.163 556.8l-127.763-331.719h53.893l31.128 85.485h142.63l31.128-85.485h54.357l-127.763 331.719h-57.609zM234.752 352.379l55.287 150.063h1.858l54.822-150.063h-111.967zM480.057 556.8v-331.719h119.865c53.428 0 93.848 14.867 121.723 44.601 26.482 28.805 39.955 69.224 39.955 121.259 0 52.499-13.009 92.919-39.026 120.794-27.876 30.199-68.295 45.065-121.723 45.065h-120.794zM530.697 513.593h60.862c41.813 0 72.476-9.756 91.989-29.734 18.584-19.513 28.34-50.176 28.34-92.919 0-41.813-9.756-72.476-28.805-92.454-19.513-19.977-50.641-30.199-92.454-30.199h-59.932v245.305zM192 768c-17.673 0-32 14.327-32 32s14.327 32 32 32h640c88.366 0 160-71.634 160-160v-459.126c0-17.673-14.327-32-32-32s-32 14.327-32 32v459.126c0 53.019-42.981 96-96 96h-640z" />
</font>
</defs>
</svg>
